<svg version="1.1" id="Layer_1" xmlns="http://www.w3.org/2000/svg" xmlns:xlink="http://www.w3.org/1999/xlink" x="0px" y="0px"
	 viewBox="0 0 131 131" style="enable-background:new 0 0 131 131;" xml:space="preserve">
<path fill="#E04F5F" d="M1.3,64.9c0-35.1,28.4-63.5,63.5-63.5s63.5,28.4,63.5,63.5s-28.4,63.5-63.5,63.5S1.3,100,1.3,64.9z"/>
<path fill="#EA4949" d="M67.5,69.7h8.2v8.2h-8.2V69.7z"/>
<g>
	<g transform="scale(5.12,5.12)">
		<path fill="#ffffff" d="M6.7,7.1v3h11.9v-3H6.7z M7.2,10.6v7.7h10.9v-7.7H7.2z M10.8,11.3h3.7c0.3,0,0.6,0.3,0.6,0.6
			s-0.3,0.6-0.6,0.6h-3.7c-0.3,0-0.6-0.3-0.6-0.6S10.4,11.3,10.8,11.3z"/>
	</g>
</g>
</svg>
