<?xml version="1.0" encoding="UTF-8"?><svg id="uuid-989287e5-97f3-4c3d-86bf-fe36bab154a6" xmlns="http://www.w3.org/2000/svg" viewBox="0 0 126.96 126.96"><path d="m0,63.48C0,28.43,28.43,0,63.48,0s63.48,28.43,63.48,63.48-28.43,63.48-63.48,63.48S0,98.53,0,63.48Z" style="fill:#e04f5f;"/><path d="m61.38,60.38h8.19v8.19h-8.19v-8.19Z" style="fill:#ea4949;"/><path d="m97.75,67.15s-10.15-13.53-20.29,0c-2.22-3.59-5.96-5.97-10.15-6.48v23.4c0,1.87,1.51,3.38,3.38,3.38s3.38-1.51,3.38-3.38,1.51-3.38,3.38-3.38,3.38,1.51,3.38,3.38c0,5.6-4.54,10.15-10.15,10.15s-10.15-4.54-10.15-10.15v-23.4c-4.19.51-7.92,2.9-10.15,6.48-10.15-13.53-20.29,0-20.29,0,0-17.37,13.16-31.92,30.44-33.66v-3.55c0-1.87,1.51-3.38,3.38-3.38s3.38,1.51,3.38,3.38v3.55c17.28,1.74,30.44,16.28,30.44,33.66Z" style="fill:#fff;"/></svg>